# xmcd
#
# Track frame offsets: 
#        150
#        9488
#        26256
#        38569
#        58398
#        73596
#        90023
#        105209
#        114230
#        127259
#        137378
#        153041
#        166710
#        182348
#
# Disc length: 2683 seconds
#
# Revision: 0
# Processed by: cddbd v1.5.2PL0 Copyright (c) Steve Scherf et al.
# Submitted via: ExactAudioCopyFreeDBPlugin 1.0
#
DISCID=950a790e
DTITLE=AzudemSK - Bis Das Leben Applaudiert
DYEAR=2016
DGENRE=Hip-Hop
TTITLE0=Ich Bin Bereit
TTITLE1=Lauf (ft. Slowy)
TTITLE2=Erster Bis Siebter
TTITLE3=Halb8 (ft. dude26, Tsnd Mrk and Luke)
TTITLE4=Kreise Schließen Sich
TTITLE5=Weisste Wie (ft. Pierre Sonality and Mase)
TTITLE6=Mad Flavor Pt.II
TTITLE7=Liegende 8
TTITLE8=NoJusticeNoPeace
TTITLE9=Interlude (ft. Dennis Real)
TTITLE10=Deine Liebe (ft. Pierre Sonality)
TTITLE11=Ohnmacht
TTITLE12=Bis Das Leben Applaudiert
TTITLE13=Für Den Frühling
EXTD=
EXTT0=
EXTT1=
EXTT2=
EXTT3=
EXTT4=
EXTT5=
EXTT6=
EXTT7=
EXTT8=
EXTT9=
EXTT10=
EXTT11=
EXTT12=
EXTT13=
PLAYORDER=
